<!--?xml version="1.0" encoding="utf-8"?-->
<!-- Svg Vector Icons : http://www.onlinewebfonts.com/icon -->

<svg version="1.1" xmlns="http://www.w3.org/2000/svg" xmlns:xlink="http://www.w3.org/1999/xlink" x="0px" y="0px" viewBox="0 0 256 256" enable-background="new 0 0 256 256" xml:space="preserve">
<metadata> Svg Vector Icons : http://www.onlinewebfonts.com/icon </metadata>
<g><g><path fill="#6FD0F6" data-title="Layer 0" xs="0" d="M128,10C62.8,10,10,62.8,10,128c0,65.2,52.8,118,118,118c65.2,0,118-52.8,118-118C246,62.8,193.2,10,128,10z M82,135.9l-0.2,0c-0.1,0-0.2,0-0.4,0.1l-0.9,0.3c-11.4,3.7-19,12.5-19.8,22.5h20.4v3.7H57v-1.8c0-12.3,8.6-23.1,22-27.6l0.2-0.1c0.5-0.2,1.1-0.4,1.7-0.5c0.4-0.1,0.8-0.2,1.2-0.3c1.3-0.4,1.7-0.9,1.7-2.1c0-1.5-1.7-2.6-2.5-3c-0.1,0-0.8-0.4-0.8-0.4c-7.4-3.8-12.2-11.8-12.2-20.5c0-12.6,9.7-22.8,21.6-22.8c2.9,0,5.7,0.6,8.3,1.7l-1.5,3.3c-2.2-0.9-4.5-1.4-6.8-1.4C80,86.9,72,95.5,72,106.1c0,7.3,4,14.1,10.2,17.3c0,0,0.6,0.3,0.8,0.4c2.9,1.6,4.5,3.8,4.5,6.3c0,2.8-1.5,4.7-4.4,5.6C82.7,135.7,82.3,135.8,82,135.9z M179.7,172.6h-95v-1.8c0-16.6,11.7-31.3,29.9-37.4l0.3-0.1c0.7-0.3,1.4-0.5,2.2-0.7c0.6-0.2,1.2-0.3,1.7-0.5c2.1-0.7,2.8-1.6,2.8-3.5c0-2.4-2.4-4-3.8-4.7c-0.1,0-1.1-0.6-1.1-0.6c-10-5.1-16.5-16-16.5-27.7c0-17,13-30.7,29-30.7c16,0,29,13.8,29,30.7c0,11.9-7.6,22.2-14.6,26.6c-4.4,2.8-5.1,3.8-5.1,5.2c0,3.9,6.2,4.6,6.2,4.6l0.2,0c20.3,4.9,34.5,20.9,34.5,38.8V172.6L179.7,172.6z M203.2,162.5h-19.1v-3.7h15.4c-0.8-10-8.4-18.7-19.8-22.5l-1.1-0.4c0,0-0.1,0-0.2,0l-0.2,0c-0.4-0.1-0.7-0.2-1.1-0.3c-3-0.9-4.5-2.8-4.5-5.6c0-2.5,1.6-4.7,4.4-6.2c0.3-0.1,0.9-0.4,0.9-0.4c6.2-3.2,10.3-10,10.3-17.3c0-10.6-8-19.2-17.9-19.2c-2.4,0-4.6,0.5-6.8,1.4L162,85c2.6-1.2,5.4-1.7,8.3-1.7c11.9,0,21.6,10.2,21.6,22.8c0,8.7-4.8,16.8-12.2,20.5c0,0-0.7,0.4-0.9,0.5c-0.8,0.4-2.3,1.5-2.3,2.9c0,1.2,0.4,1.7,1.8,2.1c0.3,0.1,0.7,0.2,1.1,0.3c0.7,0.2,1.2,0.3,1.8,0.5l0.3,0.1c13.3,4.6,21.9,15.4,21.9,27.6L203.2,162.5L203.2,162.5z"/><path fill="#6FD0F6" data-title="Layer 1" xs="1" d="M144.5,135.6c-3.5-0.4-9.4-2.6-9.4-8.2c0-3.7,2.8-5.8,6.8-8.3c6.2-3.9,12.9-13,12.9-23.6c0-14.9-11.4-27.1-25.4-27.1S104,80.6,104,95.5c0,10.4,5.7,20,14.5,24.4c0,0,0.9,0.5,1.1,0.6c2.2,1.2,5.8,3.8,5.8,8c0,5.3-4.2,6.6-5.5,7c-0.6,0.1-1.1,0.3-1.6,0.4l-0.2,0c-0.2,0-0.4,0.1-0.6,0.1l-1.2,0.4c-16.2,5.3-27,17.9-27.8,32.3l0,0H176C175,153.5,162.4,139.9,144.5,135.6z"/></g></g>
</svg>